<mxfile host="65bd71144e">
    <diagram id="YypmJHqpfHOMsPPTSvtt" name="Page-1">
        <mxGraphModel dx="1234" dy="787" grid="1" gridSize="10" guides="1" tooltips="1" connect="1" arrows="1" fold="1" page="1" pageScale="1" pageWidth="850" pageHeight="1100" math="0" shadow="0">
            <root>
                <mxCell id="0"/>
                <mxCell id="1" parent="0"/>
                <mxCell id="2" style="edgeStyle=orthogonalEdgeStyle;rounded=0;orthogonalLoop=1;jettySize=auto;html=1;entryX=0;entryY=0.5;entryDx=0;entryDy=0;endArrow=none;endFill=0;" edge="1" parent="1" source="4" target="20">
                    <mxGeometry relative="1" as="geometry"/>
                </mxCell>
                <mxCell id="3" value="N" style="edgeLabel;html=1;align=center;verticalAlign=middle;resizable=0;points=[];" vertex="1" connectable="0" parent="2">
                    <mxGeometry x="-0.2429" relative="1" as="geometry">
                        <mxPoint as="offset"/>
                    </mxGeometry>
                </mxCell>
                <mxCell id="4" value="AUTOR" style="rounded=0;whiteSpace=wrap;html=1;fillColor=#1ba1e2;strokeColor=#006EAF;fontColor=#ffffff;" vertex="1" parent="1">
                    <mxGeometry x="120" y="100" width="120" height="60" as="geometry"/>
                </mxCell>
                <mxCell id="5" value="LIVRO" style="rounded=0;whiteSpace=wrap;html=1;fillColor=#1ba1e2;strokeColor=#006EAF;fontColor=#ffffff;" vertex="1" parent="1">
                    <mxGeometry x="470" y="100" width="120" height="60" as="geometry"/>
                </mxCell>
                <mxCell id="6" style="edgeStyle=orthogonalEdgeStyle;rounded=0;orthogonalLoop=1;jettySize=auto;html=1;entryX=0;entryY=0.5;entryDx=0;entryDy=0;endArrow=none;endFill=0;" edge="1" parent="1" source="10" target="23">
                    <mxGeometry relative="1" as="geometry"/>
                </mxCell>
                <mxCell id="7" value="1" style="edgeLabel;html=1;align=center;verticalAlign=middle;resizable=0;points=[];" vertex="1" connectable="0" parent="6">
                    <mxGeometry x="-0.2429" y="-1" relative="1" as="geometry">
                        <mxPoint as="offset"/>
                    </mxGeometry>
                </mxCell>
                <mxCell id="8" style="edgeStyle=orthogonalEdgeStyle;rounded=0;orthogonalLoop=1;jettySize=auto;html=1;entryX=0.5;entryY=0;entryDx=0;entryDy=0;endArrow=none;endFill=0;" edge="1" parent="1" source="10" target="32">
                    <mxGeometry relative="1" as="geometry"/>
                </mxCell>
                <mxCell id="9" value="1" style="edgeLabel;html=1;align=center;verticalAlign=middle;resizable=0;points=[];" vertex="1" connectable="0" parent="8">
                    <mxGeometry x="-0.1762" y="2" relative="1" as="geometry">
                        <mxPoint as="offset"/>
                    </mxGeometry>
                </mxCell>
                <mxCell id="10" value="ALUNO" style="rounded=0;whiteSpace=wrap;html=1;fillColor=#1ba1e2;strokeColor=#006EAF;fontColor=#ffffff;" vertex="1" parent="1">
                    <mxGeometry x="120" y="200" width="120" height="60" as="geometry"/>
                </mxCell>
                <mxCell id="11" style="edgeStyle=orthogonalEdgeStyle;rounded=0;orthogonalLoop=1;jettySize=auto;html=1;entryX=0.5;entryY=1;entryDx=0;entryDy=0;endArrow=none;endFill=0;" edge="1" parent="1" source="15" target="26">
                    <mxGeometry relative="1" as="geometry"/>
                </mxCell>
                <mxCell id="12" value="1" style="edgeLabel;html=1;align=center;verticalAlign=middle;resizable=0;points=[];" vertex="1" connectable="0" parent="11">
                    <mxGeometry x="-0.1257" y="1" relative="1" as="geometry">
                        <mxPoint as="offset"/>
                    </mxGeometry>
                </mxCell>
                <mxCell id="13" style="edgeStyle=orthogonalEdgeStyle;rounded=0;orthogonalLoop=1;jettySize=auto;html=1;entryX=1;entryY=0.5;entryDx=0;entryDy=0;endArrow=none;endFill=0;" edge="1" parent="1" source="15" target="29">
                    <mxGeometry relative="1" as="geometry">
                        <Array as="points">
                            <mxPoint x="430" y="480"/>
                            <mxPoint x="430" y="480"/>
                        </Array>
                    </mxGeometry>
                </mxCell>
                <mxCell id="14" value="1" style="edgeLabel;html=1;align=center;verticalAlign=middle;resizable=0;points=[];" vertex="1" connectable="0" parent="13">
                    <mxGeometry x="-0.0776" y="-2" relative="1" as="geometry">
                        <mxPoint as="offset"/>
                    </mxGeometry>
                </mxCell>
                <mxCell id="15" value="FUNCIONÁRIO" style="rounded=0;whiteSpace=wrap;html=1;fillColor=#1ba1e2;strokeColor=#006EAF;fontColor=#ffffff;" vertex="1" parent="1">
                    <mxGeometry x="470" y="450" width="120" height="60" as="geometry"/>
                </mxCell>
                <mxCell id="16" value="EMPRÉSTIMO" style="rounded=0;whiteSpace=wrap;html=1;fillColor=#1ba1e2;strokeColor=#006EAF;fontColor=#ffffff;" vertex="1" parent="1">
                    <mxGeometry x="470" y="200" width="120" height="60" as="geometry"/>
                </mxCell>
                <mxCell id="17" value="DEVOLUÇÃO" style="rounded=0;whiteSpace=wrap;html=1;fillColor=#1ba1e2;strokeColor=#006EAF;fontColor=#ffffff;" vertex="1" parent="1">
                    <mxGeometry x="120" y="450" width="120" height="60" as="geometry"/>
                </mxCell>
                <mxCell id="18" style="edgeStyle=orthogonalEdgeStyle;rounded=0;orthogonalLoop=1;jettySize=auto;html=1;endArrow=none;endFill=0;" edge="1" parent="1" source="20" target="5">
                    <mxGeometry relative="1" as="geometry"/>
                </mxCell>
                <mxCell id="19" value="N" style="edgeLabel;html=1;align=center;verticalAlign=middle;resizable=0;points=[];" vertex="1" connectable="0" parent="18">
                    <mxGeometry x="0.1918" y="1" relative="1" as="geometry">
                        <mxPoint as="offset"/>
                    </mxGeometry>
                </mxCell>
                <mxCell id="20" value="ESCREVE" style="rhombus;whiteSpace=wrap;html=1;fillColor=#d80073;strokeColor=#A50040;fontColor=#ffffff;" vertex="1" parent="1">
                    <mxGeometry x="320" y="90" width="80" height="80" as="geometry"/>
                </mxCell>
                <mxCell id="21" style="edgeStyle=orthogonalEdgeStyle;rounded=0;orthogonalLoop=1;jettySize=auto;html=1;entryX=0;entryY=0.5;entryDx=0;entryDy=0;endArrow=none;endFill=0;" edge="1" parent="1" source="23" target="16">
                    <mxGeometry relative="1" as="geometry"/>
                </mxCell>
                <mxCell id="22" value="N" style="edgeLabel;html=1;align=center;verticalAlign=middle;resizable=0;points=[];" vertex="1" connectable="0" parent="21">
                    <mxGeometry x="-0.0694" y="1" relative="1" as="geometry">
                        <mxPoint as="offset"/>
                    </mxGeometry>
                </mxCell>
                <mxCell id="23" value="REALIZA" style="rhombus;whiteSpace=wrap;html=1;fillColor=#d80073;strokeColor=#A50040;fontColor=#ffffff;" vertex="1" parent="1">
                    <mxGeometry x="320" y="190" width="80" height="80" as="geometry"/>
                </mxCell>
                <mxCell id="24" style="edgeStyle=orthogonalEdgeStyle;rounded=0;orthogonalLoop=1;jettySize=auto;html=1;entryX=0.5;entryY=1;entryDx=0;entryDy=0;endArrow=none;endFill=0;" edge="1" parent="1" source="26" target="16">
                    <mxGeometry relative="1" as="geometry"/>
                </mxCell>
                <mxCell id="25" value="N" style="edgeLabel;html=1;align=center;verticalAlign=middle;resizable=0;points=[];" vertex="1" connectable="0" parent="24">
                    <mxGeometry x="0.0429" y="-1" relative="1" as="geometry">
                        <mxPoint as="offset"/>
                    </mxGeometry>
                </mxCell>
                <mxCell id="26" value="EFETUA" style="rhombus;whiteSpace=wrap;html=1;fillColor=#d80073;strokeColor=#A50040;fontColor=#ffffff;" vertex="1" parent="1">
                    <mxGeometry x="490" y="320" width="80" height="80" as="geometry"/>
                </mxCell>
                <mxCell id="27" style="edgeStyle=orthogonalEdgeStyle;rounded=0;orthogonalLoop=1;jettySize=auto;html=1;entryX=1;entryY=0.5;entryDx=0;entryDy=0;endArrow=none;endFill=0;" edge="1" parent="1" source="29" target="17">
                    <mxGeometry relative="1" as="geometry"/>
                </mxCell>
                <mxCell id="28" value="N" style="edgeLabel;html=1;align=center;verticalAlign=middle;resizable=0;points=[];" vertex="1" connectable="0" parent="27">
                    <mxGeometry x="0.3286" relative="1" as="geometry">
                        <mxPoint as="offset"/>
                    </mxGeometry>
                </mxCell>
                <mxCell id="29" value="CONCLUI" style="rhombus;whiteSpace=wrap;html=1;fillColor=#d80073;strokeColor=#A50040;fontColor=#ffffff;" vertex="1" parent="1">
                    <mxGeometry x="320" y="440" width="80" height="80" as="geometry"/>
                </mxCell>
                <mxCell id="30" style="edgeStyle=orthogonalEdgeStyle;rounded=0;orthogonalLoop=1;jettySize=auto;html=1;entryX=0.5;entryY=0;entryDx=0;entryDy=0;endArrow=none;endFill=0;" edge="1" parent="1" source="32" target="17">
                    <mxGeometry relative="1" as="geometry"/>
                </mxCell>
                <mxCell id="31" value="N" style="edgeLabel;html=1;align=center;verticalAlign=middle;resizable=0;points=[];" vertex="1" connectable="0" parent="30">
                    <mxGeometry x="-0.0571" y="-1" relative="1" as="geometry">
                        <mxPoint as="offset"/>
                    </mxGeometry>
                </mxCell>
                <mxCell id="32" value="SOLICITA" style="rhombus;whiteSpace=wrap;html=1;fillColor=#d80073;strokeColor=#A50040;fontColor=#ffffff;" vertex="1" parent="1">
                    <mxGeometry x="140" y="320" width="80" height="80" as="geometry"/>
                </mxCell>
            </root>
        </mxGraphModel>
    </diagram>
</mxfile>